<svg xmlns="http://www.w3.org/2000/svg" viewBox="0 0 64.22 60.41"><defs><style>.cls-1{fill:#fff;fill-rule:evenodd;}.cls-2{fill:none;stroke:#231f20;}.cls-3{fill:#231f20;}</style></defs><g id="Layer_2" data-name="Layer 2"><g id="Layer_1-2" data-name="Layer 1"><path class="cls-1" d="M59.21,17.42l1.89-3.89L59.89,3.64,48.28,1.76l-1.86.78L41.8.68,32,2.36,22.5.52,17.21,2.74l-1.86-.85-11,1.75L3,14.05l2,3.54L.56,26.91l10,19.53,14.88,12L32.1,59.9l6.72-1.46,14.83-12,10-19.53ZM51.72,45l-13.57,11L32,57.27l-6.08-1.34L12.29,45,3.13,27.11l4.5-9.53-2-4.19,1-7.54,8.58-1.36,1.94.89,5.68-2.27L32,5.16l9.29-2,5.6,2.24,1.94-.89,8.59,1.36,1,7.54-2,4.19,4.5,9.53Z"/><polygon class="cls-1" points="36.43 52.05 36.43 49.33 34.83 51.69 36.43 52.05"/><polygon class="cls-1" points="25.9 30.97 26.01 32.36 26.46 38.04 27.9 33.83 32 33.92 32 33.92 32.01 33.92 32.02 33.92 32.02 33.92 36.11 33.83 37.55 38.04 38.11 30.97 32.02 31.96 25.9 30.97"/><polygon class="cls-1" points="21.52 21.86 26.71 20.8 16.1 17.23 18.92 7.41 12.62 17 9.81 13.79 8.24 6.92 7.62 12.53 9.98 17.25 5.55 26.66 13.96 43.2 22.78 50.4 15.27 33.31 21.52 21.86"/><polygon class="cls-1" points="27.59 49.36 27.58 53.39 31.97 54.74 36.29 53.39 29.21 52.06 27.59 49.36"/><polygon class="cls-1" points="50.12 6.12 47.76 6.12 52.99 9.27 54.92 15.07 55.25 11.63 54.45 7.91 50.12 6.12"/><polygon class="cls-1" points="42.44 21.86 45.03 18.17 37.24 20.8 42.44 21.86"/><polygon class="cls-1" points="25.86 23.06 21.57 29.21 25.41 45.63 23.71 29.47 27.34 26.25 32.03 29.01 36.79 26.25 38.14 23.08 32.01 22.01 25.86 23.06"/><path class="cls-2" d="M59.21,17.42l1.89-3.89L59.89,3.64,48.28,1.76l-1.86.78L41.8.68,32,2.36,22.5.52,17.21,2.74l-1.86-.85-11,1.75L3,14.05l2,3.54L.56,26.91l10,19.53,14.88,12L32.1,59.9l6.72-1.46,14.83-12,10-19.53ZM51.72,45l-13.57,11L32,57.27l-6.08-1.34L12.29,45,3.13,27.11l4.5-9.53-2-4.19,1-7.54,8.58-1.36,1.94.89,5.68-2.27L32,5.16l9.29-2,5.6,2.24,1.94-.89,8.59,1.36,1,7.54-2,4.19,4.5,9.53Z"/><polygon class="cls-2" points="36.43 52.05 36.43 49.33 34.83 51.69 36.43 52.05"/><polygon class="cls-2" points="25.9 30.97 26.01 32.36 26.46 38.04 27.9 33.83 32 33.92 32 33.92 32.01 33.92 32.02 33.92 32.02 33.92 36.11 33.83 37.55 38.04 38.11 30.97 32.02 31.96 25.9 30.97"/><polygon class="cls-2" points="21.52 21.86 26.71 20.8 16.1 17.23 18.92 7.41 12.62 17 9.81 13.79 8.24 6.92 7.62 12.53 9.98 17.25 5.55 26.66 13.96 43.2 22.78 50.4 15.27 33.31 21.52 21.86"/><polygon class="cls-2" points="27.59 49.36 27.58 53.39 31.97 54.74 36.29 53.39 29.21 52.06 27.59 49.36"/><polygon class="cls-2" points="50.12 6.12 47.76 6.12 52.99 9.27 54.92 15.07 55.25 11.63 54.45 7.91 50.12 6.12"/><polygon class="cls-2" points="42.44 21.86 45.03 18.17 37.24 20.8 42.44 21.86"/><polygon class="cls-2" points="25.86 23.06 21.57 29.21 25.41 45.63 23.71 29.47 27.34 26.25 32.03 29.01 36.79 26.25 38.14 23.08 32.01 22.01 25.86 23.06"/><path class="cls-3" d="M59.21,17.42l1.89-3.89L59.89,3.64,48.28,1.76l-1.86.78L41.8.68,32,2.36,22.5.52,17.21,2.74l-1.86-.85-11,1.75L3,14.05l2,3.54L.56,26.91l10,19.53,14.88,12L32.1,59.9l6.72-1.46,14.83-12,10-19.53ZM51.72,45l-13.57,11L32,57.27l-6.08-1.34L12.29,45,3.13,27.11l4.5-9.53-2-4.19,1-7.54,8.58-1.36,1.94.89,5.68-2.27L32,5.16l9.29-2,5.6,2.24,1.94-.89,8.59,1.36,1,7.54-2,4.19,4.5,9.53Z"/><polygon class="cls-3" points="36.43 52.05 36.43 49.33 34.83 51.69 36.43 52.05"/><polygon class="cls-3" points="25.9 30.97 26.01 32.36 26.46 38.04 27.9 33.83 32 33.92 32 33.92 32.01 33.92 32.02 33.92 32.02 33.92 36.11 33.83 37.55 38.04 38.11 30.97 32.02 31.96 25.9 30.97"/><polygon class="cls-3" points="21.52 21.86 26.71 20.8 16.1 17.23 18.92 7.41 12.62 17 9.81 13.79 8.24 6.92 7.62 12.53 9.98 17.25 5.55 26.66 13.96 43.2 22.78 50.4 15.27 33.31 21.52 21.86"/><polygon class="cls-3" points="27.59 49.36 27.58 53.39 31.97 54.74 36.29 53.39 29.21 52.06 27.59 49.36"/><polygon class="cls-3" points="50.12 6.12 47.76 6.12 52.99 9.27 54.92 15.07 55.25 11.63 54.45 7.91 50.12 6.12"/><polygon class="cls-3" points="42.44 21.86 45.03 18.17 37.24 20.8 42.44 21.86"/><polygon class="cls-3" points="25.86 23.06 21.57 29.21 25.41 45.63 23.71 29.47 27.34 26.25 32.03 29.01 36.79 26.25 38.14 23.08 32.01 22.01 25.86 23.06"/></g></g></svg>